<svg width="10" height="10" viewBox="0 0 10 10" fill="none" xmlns="http://www.w3.org/2000/svg">
<path d="M5.35222 0.500012C3.40234 0.500012 1.72643 1.66431 1.03775 3.32072L0.763353 2.84507C0.691587 2.7122 0.549642 2.63051 0.396073 2.63412C0.253068 2.63723 0.122207 2.71426 0.0520148 2.83627C-0.018168 2.9588 -0.017113 3.10821 0.0541255 3.22971L0.797115 4.53257C0.904765 4.71921 1.14381 4.78849 1.33747 4.68974L2.6588 4.02797C2.75959 3.98299 2.83663 3.89976 2.87304 3.79739C2.90945 3.69554 2.90154 3.58335 2.8514 3.48666C2.80127 3.3905 2.71315 3.31812 2.60761 3.28658C2.50207 3.25556 2.38809 3.26745 2.29153 3.32071L1.80605 3.56474C2.38651 2.23393 3.7543 1.29409 5.35213 1.29409C7.47978 1.29409 9.18947 2.95155 9.18947 4.99997C9.18947 7.0484 7.47978 8.70586 5.35213 8.70586C3.53208 8.70586 2.01557 7.48211 1.61611 5.85206C1.56387 5.63854 1.34488 5.5067 1.12641 5.5584C0.908474 5.60958 0.774439 5.82465 0.826678 6.03818C1.31374 8.024 3.16115 9.5 5.35216 9.5C7.91196 9.5 10 7.48374 10 5C10 2.51626 7.91202 0.500012 5.35222 0.500012ZM5.40287 2.4771C5.2947 2.47813 5.1918 2.52156 5.11634 2.59756C5.04088 2.67356 4.99972 2.77645 5.00183 2.88243V5.00007C5.00183 5.12054 5.05776 5.23479 5.1538 5.31028L6.50469 6.36911C6.58912 6.43476 6.69625 6.46527 6.80283 6.45338C6.90996 6.442 7.00758 6.38927 7.07512 6.30706C7.14214 6.22486 7.17327 6.11938 7.16113 6.01496C7.14952 5.91001 7.0957 5.81436 7.01127 5.7487L5.81235 4.80982V2.88249C5.81499 2.77496 5.77277 2.67103 5.6952 2.59452C5.61816 2.51852 5.51263 2.47607 5.40287 2.4771Z" fill="#757575"/>
</svg>
