<svg width="95" height="89" viewBox="0 0 95 89" fill="none" xmlns="http://www.w3.org/2000/svg">
<path d="M47.5 77.875C66.968 77.875 82.75 62.9325 82.75 44.5C82.75 26.0675 66.968 11.125 47.5 11.125C28.032 11.125 12.25 26.0675 12.25 44.5C12.25 62.9325 28.032 77.875 47.5 77.875Z" stroke="black" stroke-width="2" stroke-linecap="round" stroke-linejoin="round"/>
<path d="M47.5 55.625C55.6117 55.625 62.1875 49.399 62.1875 41.7188C62.1875 34.0385 55.6117 27.8125 47.5 27.8125C39.3883 27.8125 32.8125 34.0385 32.8125 41.7188C32.8125 49.399 39.3883 55.625 47.5 55.625Z" stroke="black" stroke-width="2" stroke-linecap="round" stroke-linejoin="round"/>
<path d="M23.9266 69.3227C26.1367 65.201 29.5091 61.7392 33.67 59.3211C37.831 56.9029 42.6178 55.6229 47.5 55.6229C52.3822 55.6229 57.1691 56.9029 61.33 59.3211C65.4909 61.7392 68.8633 65.201 71.0734 69.3227" stroke="black" stroke-width="2" stroke-linecap="round" stroke-linejoin="round"/>
</svg>
